<svg width="134" height="54" viewBox="0 0 134 54" fill="none" xmlns="http://www.w3.org/2000/svg">
<g id="Bouton r&#195;&#169;servez">
<rect id="Rectangle 61" x="0.5" y="0.5" width="133" height="53" rx="3.5" fill="#DDDDDD" stroke="black"/>
<path id="R&#195;&#169;servez" d="M32.8981 31V22.54H36.5941C37.5221 22.54 38.2381 22.76 38.7421 23.2C39.2541 23.64 39.5101 24.252 39.5101 25.036C39.5101 25.556 39.3941 26 39.1621 26.368C38.9381 26.736 38.6141 27.02 38.1901 27.22C37.7661 27.412 37.2661 27.508 36.6901 27.508L36.8581 27.28H37.2661C37.6021 27.28 37.9021 27.368 38.1661 27.544C38.4301 27.72 38.6461 27.988 38.8141 28.348L40.0501 31H38.3461L37.0981 28.252C36.9861 27.972 36.8141 27.788 36.5821 27.7C36.3581 27.612 36.0861 27.568 35.7661 27.568H34.4461V31H32.8981ZM34.4461 26.428H36.3421C36.8861 26.428 37.2981 26.316 37.5781 26.092C37.8661 25.86 38.0101 25.524 38.0101 25.084C38.0101 24.644 37.8661 24.312 37.5781 24.088C37.2981 23.864 36.8861 23.752 36.3421 23.752H34.4461V26.428ZM42.5239 31V22.54H48.2239V23.752H44.0119V26.092H47.9479V27.316H44.0119V29.776H48.2239V31H42.5239ZM45.0439 21.82L46.4719 19.732H48.0319L46.1239 21.82H45.0439ZM53.6954 31.12C53.0154 31.12 52.3874 31.036 51.8114 30.868C51.2434 30.692 50.7554 30.452 50.3474 30.148L50.8274 28.936C51.0994 29.128 51.3834 29.292 51.6794 29.428C51.9754 29.556 52.2914 29.656 52.6274 29.728C52.9634 29.792 53.3194 29.824 53.6954 29.824C54.3274 29.824 54.7834 29.72 55.0634 29.512C55.3434 29.304 55.4834 29.032 55.4834 28.696C55.4834 28.4 55.3874 28.176 55.1954 28.024C55.0034 27.864 54.6594 27.732 54.1634 27.628L52.8074 27.352C52.0314 27.192 51.4514 26.924 51.0674 26.548C50.6834 26.172 50.4914 25.668 50.4914 25.036C50.4914 24.508 50.6314 24.048 50.9114 23.656C51.1914 23.264 51.5834 22.96 52.0874 22.744C52.5914 22.528 53.1794 22.42 53.8514 22.42C54.4514 22.42 55.0074 22.508 55.5194 22.684C56.0314 22.852 56.4594 23.096 56.8034 23.416L56.3234 24.568C55.9794 24.28 55.6034 24.068 55.1954 23.932C54.7874 23.788 54.3314 23.716 53.8274 23.716C53.2594 23.716 52.8154 23.828 52.4954 24.052C52.1834 24.268 52.0274 24.568 52.0274 24.952C52.0274 25.248 52.1234 25.484 52.3154 25.66C52.5154 25.836 52.8514 25.972 53.3234 26.068L54.6674 26.332C55.4674 26.492 56.0594 26.756 56.4434 27.124C56.8274 27.484 57.0194 27.972 57.0194 28.588C57.0194 29.092 56.8834 29.536 56.6114 29.92C56.3394 30.296 55.9554 30.592 55.4594 30.808C54.9634 31.016 54.3754 31.12 53.6954 31.12ZM59.6778 31V22.54H65.3778V23.752H61.1658V26.092H65.1018V27.316H61.1658V29.776H65.3778V31H59.6778ZM68.0145 31V22.54H71.7105C72.6385 22.54 73.3545 22.76 73.8585 23.2C74.3705 23.64 74.6265 24.252 74.6265 25.036C74.6265 25.556 74.5105 26 74.2785 26.368C74.0545 26.736 73.7305 27.02 73.3065 27.22C72.8825 27.412 72.3825 27.508 71.8065 27.508L71.9745 27.28H72.3825C72.7185 27.28 73.0185 27.368 73.2825 27.544C73.5465 27.72 73.7625 27.988 73.9305 28.348L75.1665 31H73.4625L72.2145 28.252C72.1025 27.972 71.9305 27.788 71.6985 27.7C71.4745 27.612 71.2025 27.568 70.8825 27.568H69.5625V31H68.0145ZM69.5625 26.428H71.4585C72.0025 26.428 72.4145 26.316 72.6945 26.092C72.9825 25.86 73.1265 25.524 73.1265 25.084C73.1265 24.644 72.9825 24.312 72.6945 24.088C72.4145 23.864 72.0025 23.752 71.4585 23.752H69.5625V26.428ZM80.224 31L76.456 22.54H78.124L81.16 29.644H80.656L83.692 22.54H85.3L81.532 31H80.224ZM87.3364 31V22.54H93.0364V23.752H88.8244V26.092H92.7604V27.316H88.8244V29.776H93.0364V31H87.3364ZM95.2771 31V29.86L100.017 23.332V23.824H95.2771V22.54H101.493V23.668L96.7411 30.196V29.716H101.649V31H95.2771Z" fill="black"/>
</g>
</svg>
